<svg id="my-svg" width="100%" xmlns="http://www.w3.org/2000/svg" xmlns:xlink="http://www.w3.org/1999/xlink" style="max-width: 1259.18px; background-color: transparent;" viewBox="-560.1900024414062 -272.2453918457031 1259.1768798828125 708.1783447265625" role="graphics-document document" aria-roledescription="architecture"><style>#my-svg{font-family:"trebuchet ms",verdana,arial,sans-serif;font-size:16px;fill:#333;}@keyframes edge-animation-frame{from{stroke-dashoffset:0;}}@keyframes dash{to{stroke-dashoffset:0;}}#my-svg .edge-animation-slow{stroke-dasharray:9,5!important;stroke-dashoffset:900;animation:dash 50s linear infinite;stroke-linecap:round;}#my-svg .edge-animation-fast{stroke-dasharray:9,5!important;stroke-dashoffset:900;animation:dash 20s linear infinite;stroke-linecap:round;}#my-svg .error-icon{fill:#552222;}#my-svg .error-text{fill:#552222;stroke:#552222;}#my-svg .edge-thickness-normal{stroke-width:1px;}#my-svg .edge-thickness-thick{stroke-width:3.5px;}#my-svg .edge-pattern-solid{stroke-dasharray:0;}#my-svg .edge-thickness-invisible{stroke-width:0;fill:none;}#my-svg .edge-pattern-dashed{stroke-dasharray:3;}#my-svg .edge-pattern-dotted{stroke-dasharray:2;}#my-svg .marker{fill:#333333;stroke:#333333;}#my-svg .marker.cross{stroke:#333333;}#my-svg svg{font-family:"trebuchet ms",verdana,arial,sans-serif;font-size:16px;}#my-svg p{margin:0;}#my-svg .edge{stroke-width:3;stroke:#333333;fill:none;}#my-svg .arrow{fill:#333333;}#my-svg .node-bkg{fill:none;stroke:hsl(240, 60%, 86.2745098039%);stroke-width:2px;stroke-dasharray:8;}#my-svg .node-icon-text{display:flex;align-items:center;}#my-svg .node-icon-text&gt;div{color:#fff;margin:1px;height:fit-content;text-align:center;overflow:hidden;display:-webkit-box;-webkit-box-orient:vertical;}#my-svg :root{--mermaid-font-family:"trebuchet ms",verdana,arial,sans-serif;}</style><g/><g class="architecture-edges"><g><path d="M -440.1900114942241,-192.24538893331578 L -381.2749941714585,-192.24538893331578 L-322.35997684869295,-192.24538893331578" class="edge" id="L_raw_dvc_0"/><polygon points="13.333333333333334,6.666666666666667 0,13.333333333333334 0,0" transform="translate(-333.69331018202627,-198.91205559998244)" class="arrow"/></g><g><path d="M -242.35997684869295,-192.24538893331578 L -184.57453147086352,-192.24538893331578 L-126.78908609303409,-192.24538893331578" class="edge" id="L_dvc_cleanvision_0"/><polygon points="13.333333333333334,6.666666666666667 0,13.333333333333334 0,0" transform="translate(-138.12241942636743,-198.91205559998244)" class="arrow"/></g><g><path d="M -46.789086093034086,-192.24538893331578 L 10.40002465150745,-192.24538893331578 L67.58913539604899,-192.24538893331578" class="edge" id="L_cleanvision_cleanlab_0"/><polygon points="13.333333333333334,6.666666666666667 0,13.333333333333334 0,0" transform="translate(56.25580206271565,-198.91205559998244)" class="arrow"/></g><g><path d="M 147.589135396049,-192.24538893331578 L 180.81300853380844,-192.24538893331578 L214.03688167156793,-192.24538893331578" class="edge" id="L_cleanlab_preprocess_0"/><polygon points="13.333333333333334,6.666666666666667 0,13.333333333333334 0,0" transform="translate(202.70354833823458,-198.91205559998244)" class="arrow"/></g><g><path d="M 294.0368816715679,-192.24538893331578 L 327.7314936027707,-192.24538893331578 L361.42610553397344,-192.24538893331578" class="edge" id="L_preprocess_pytorch_0"/><polygon points="13.333333333333334,6.666666666666667 0,13.333333333333334 0,0" transform="translate(350.0927722006401,-198.91205559998244)" class="arrow"/></g><g><path d="M 441.42610553397344,-192.24538893331578 L 501.5580585140988,-192.24538893331578 L561.6900114942241,-192.24538893331578" class="edge" id="L_pytorch_mlflow_0"/><polygon points="13.333333333333334,6.666666666666667 0,13.333333333333334 0,0" transform="translate(550.3566781608907,-198.91205559998244)" class="arrow"/></g><g><path d="M 401.42610553397344,-152.24538893331578 L 401.42610553397344,-97.34531477875112 L401.42610553397344,-42.44524062418648" class="edge" id="L_pytorch_registry_0"/><polygon points="0,0 13.333333333333334,0 6.666666666666667,13.333333333333334" transform="translate(394.75943886730676,-53.77857395751982)" class="arrow"/></g><g><path d="M 401.42610553397344,37.55475937581352 L 401.42610553397344,92.17276692158664 L401.42610553397344,146.79077446735977" class="edge" id="L_registry_fastapi_0"/><polygon points="0,0 13.333333333333334,0 6.666666666666667,13.333333333333334" transform="translate(394.75943886730676,135.45744113402642)" class="arrow"/></g><g><path d="M 441.42610553397344,186.79077446735977 L 501.5580585140988,186.79077446735977 L561.6900114942241,186.79077446735977" class="edge" id="L_fastapi_nginx_0"/><polygon points="13.333333333333334,6.666666666666667 0,13.333333333333334 0,0" transform="translate(550.3566781608907,180.1241078006931)" class="arrow"/></g><g><path d="M 401.42610553397344,226.79077446735977 L 254.5076204650112,259.2680817003378 L107.58913539604899,291.7453889333158" class="edge" id="L_fastapi_minio_0"/><polygon points="0,0 13.333333333333334,0 6.666666666666667,13.333333333333334" transform="translate(100.92246872938232,280.41205559998247)" class="arrow"/></g><g><path d="M 401.42610553397344,226.79077446735977 L 401.42610553397344,259.2680817003378 L401.42610553397344,291.7453889333158" class="edge" id="L_fastapi_prom_0"/><polygon points="0,0 13.333333333333334,0 6.666666666666667,13.333333333333334" transform="translate(394.75943886730676,280.41205559998247)" class="arrow"/></g><g><path d="M 147.589135396049,331.7453889333158 L 180.81300853380844,331.7453889333158 L214.03688167156793,331.7453889333158" class="edge" id="L_minio_evidently_0"/><polygon points="13.333333333333334,6.666666666666667 0,13.333333333333334 0,0" transform="translate(202.70354833823458,325.0787222666491)" class="arrow"/></g><g><path d="M 294.0368816715679,331.7453889333158 L 327.7314936027707,331.7453889333158 L361.42610553397344,331.7453889333158" class="edge" id="L_evidently_prom_0"/><polygon points="13.333333333333334,6.666666666666667 0,13.333333333333334 0,0" transform="translate(350.0927722006401,325.0787222666491)" class="arrow"/></g><g><path d="M 441.42610553397344,331.7453889333158 L 501.5580585140988,331.7453889333158 L561.6900114942241,331.7453889333158" class="edge" id="L_prom_grafana_0"/><polygon points="13.333333333333334,6.666666666666667 0,13.333333333333334 0,0" transform="translate(550.3566781608907,325.0787222666491)" class="arrow"/></g></g><g class="architecture-services"><g id="service-raw" class="architecture-service" transform="translate(-520.1900114942241,-232.24538893331578)"><g dy="1em" alignment-baseline="middle" dominant-baseline="middle" text-anchor="middle" transform="translate(40, 80)"><g><rect class="background" style="stroke: none"/><text y="-10.1" style=""><tspan class="text-outer-tspan row" x="0" y="-0.1em" dy="1.1em"><tspan font-style="normal" class="text-inner-tspan" font-weight="normal">Raw</tspan><tspan font-style="normal" class="text-inner-tspan" font-weight="normal"> Data</tspan></tspan></text></g></g><g><g><svg xmlns="http://www.w3.org/2000/svg" width="80" height="80" viewBox="0 0 80 80"><g><rect width="80" height="80" style="fill: #087ebf; stroke-width: 0px;"/><rect x="20" y="15" width="40" height="50" rx="1" ry="1" style="fill: none; stroke: #fff; stroke-miterlimit: 10; stroke-width: 2px;"/><ellipse cx="24" cy="19.17" rx=".8" ry=".83" style="fill: none; stroke: #fff; stroke-miterlimit: 10; stroke-width: 2px;"/><ellipse cx="56" cy="19.17" rx=".8" ry=".83" style="fill: none; stroke: #fff; stroke-miterlimit: 10; stroke-width: 2px;"/><ellipse cx="24" cy="60.83" rx=".8" ry=".83" style="fill: none; stroke: #fff; stroke-miterlimit: 10; stroke-width: 2px;"/><ellipse cx="56" cy="60.83" rx=".8" ry=".83" style="fill: none; stroke: #fff; stroke-miterlimit: 10; stroke-width: 2px;"/><ellipse cx="40" cy="33.75" rx="14" ry="14.58" style="fill: none; stroke: #fff; stroke-miterlimit: 10; stroke-width: 2px;"/><ellipse cx="40" cy="33.75" rx="4" ry="4.17" style="fill: #fff; stroke: #fff; stroke-miterlimit: 10; stroke-width: 2px;"/><path d="m37.51,42.52l-4.83,13.22c-.26.71-1.1,1.02-1.76.64l-4.18-2.42c-.66-.38-.81-1.26-.33-1.84l9.01-10.8c.88-1.05,2.56-.08,2.09,1.2Z" style="fill: #fff; stroke-width: 0px;"/></g></svg></g></g></g><g id="service-dvc" class="architecture-service" transform="translate(-322.35997684869295,-232.24538893331578)"><g dy="1em" alignment-baseline="middle" dominant-baseline="middle" text-anchor="middle" transform="translate(40, 80)"><g><rect class="background" style="stroke: none"/><text y="-10.1" style=""><tspan class="text-outer-tspan row" x="0" y="-0.1em" dy="1.1em"><tspan font-style="normal" class="text-inner-tspan" font-weight="normal">DVC</tspan></tspan></text></g></g><g><g><svg xmlns="http://www.w3.org/2000/svg" width="80" height="80" viewBox="0 0 80 80"><g><rect width="80" height="80" style="fill: #087ebf; stroke-width: 0px;"/><rect x="17.5" y="17.5" width="45" height="45" rx="2" ry="2" style="fill: none; stroke: #fff; stroke-miterlimit: 10; stroke-width: 2px;"/><line x1="17.5" y1="32.5" x2="62.5" y2="32.5" style="fill: none; stroke: #fff; stroke-miterlimit: 10; stroke-width: 2px;"/><line x1="17.5" y1="47.5" x2="62.5" y2="47.5" style="fill: none; stroke: #fff; stroke-miterlimit: 10; stroke-width: 2px;"/><g><path d="m56.25,25c0,.27-.45.5-1,.5h-10.5c-.55,0-1-.23-1-.5s.45-.5,1-.5h10.5c.55,0,1,.23,1,.5Z" style="fill: #fff; stroke-width: 0px;"/><path d="m56.25,25c0,.27-.45.5-1,.5h-10.5c-.55,0-1-.23-1-.5s.45-.5,1-.5h10.5c.55,0,1,.23,1,.5Z" style="fill: none; stroke: #fff; stroke-miterlimit: 10;"/></g><g><path d="m56.25,40c0,.27-.45.5-1,.5h-10.5c-.55,0-1-.23-1-.5s.45-.5,1-.5h10.5c.55,0,1,.23,1,.5Z" style="fill: #fff; stroke-width: 0px;"/><path d="m56.25,40c0,.27-.45.5-1,.5h-10.5c-.55,0-1-.23-1-.5s.45-.5,1-.5h10.5c.55,0,1,.23,1,.5Z" style="fill: none; stroke: #fff; stroke-miterlimit: 10;"/></g><g><path d="m56.25,55c0,.27-.45.5-1,.5h-10.5c-.55,0-1-.23-1-.5s.45-.5,1-.5h10.5c.55,0,1,.23,1,.5Z" style="fill: #fff; stroke-width: 0px;"/><path d="m56.25,55c0,.27-.45.5-1,.5h-10.5c-.55,0-1-.23-1-.5s.45-.5,1-.5h10.5c.55,0,1,.23,1,.5Z" style="fill: none; stroke: #fff; stroke-miterlimit: 10;"/></g><g><circle cx="32.5" cy="25" r=".75" style="fill: #fff; stroke: #fff; stroke-miterlimit: 10;"/><circle cx="27.5" cy="25" r=".75" style="fill: #fff; stroke: #fff; stroke-miterlimit: 10;"/><circle cx="22.5" cy="25" r=".75" style="fill: #fff; stroke: #fff; stroke-miterlimit: 10;"/></g><g><circle cx="32.5" cy="40" r=".75" style="fill: #fff; stroke: #fff; stroke-miterlimit: 10;"/><circle cx="27.5" cy="40" r=".75" style="fill: #fff; stroke: #fff; stroke-miterlimit: 10;"/><circle cx="22.5" cy="40" r=".75" style="fill: #fff; stroke: #fff; stroke-miterlimit: 10;"/></g><g><circle cx="32.5" cy="55" r=".75" style="fill: #fff; stroke: #fff; stroke-miterlimit: 10;"/><circle cx="27.5" cy="55" r=".75" style="fill: #fff; stroke: #fff; stroke-miterlimit: 10;"/><circle cx="22.5" cy="55" r=".75" style="fill: #fff; stroke: #fff; stroke-miterlimit: 10;"/></g></g></svg></g></g></g><g id="service-cleanvision" class="architecture-service" transform="translate(-126.78908609303409,-232.24538893331578)"><g dy="1em" alignment-baseline="middle" dominant-baseline="middle" text-anchor="middle" transform="translate(40, 80)"><g><rect class="background" style="stroke: none"/><text y="-10.1" style=""><tspan class="text-outer-tspan row" x="0" y="-0.1em" dy="1.1em"><tspan font-style="normal" class="text-inner-tspan" font-weight="normal">CleanVision</tspan></tspan></text></g></g><g><g><svg xmlns="http://www.w3.org/2000/svg" width="80" height="80" viewBox="0 0 80 80"><g><rect width="80" height="80" style="fill: #087ebf; stroke-width: 0px;"/><rect x="17.5" y="17.5" width="45" height="45" rx="2" ry="2" style="fill: none; stroke: #fff; stroke-miterlimit: 10; stroke-width: 2px;"/><line x1="17.5" y1="32.5" x2="62.5" y2="32.5" style="fill: none; stroke: #fff; stroke-miterlimit: 10; stroke-width: 2px;"/><line x1="17.5" y1="47.5" x2="62.5" y2="47.5" style="fill: none; stroke: #fff; stroke-miterlimit: 10; stroke-width: 2px;"/><g><path d="m56.25,25c0,.27-.45.5-1,.5h-10.5c-.55,0-1-.23-1-.5s.45-.5,1-.5h10.5c.55,0,1,.23,1,.5Z" style="fill: #fff; stroke-width: 0px;"/><path d="m56.25,25c0,.27-.45.5-1,.5h-10.5c-.55,0-1-.23-1-.5s.45-.5,1-.5h10.5c.55,0,1,.23,1,.5Z" style="fill: none; stroke: #fff; stroke-miterlimit: 10;"/></g><g><path d="m56.25,40c0,.27-.45.5-1,.5h-10.5c-.55,0-1-.23-1-.5s.45-.5,1-.5h10.5c.55,0,1,.23,1,.5Z" style="fill: #fff; stroke-width: 0px;"/><path d="m56.25,40c0,.27-.45.5-1,.5h-10.5c-.55,0-1-.23-1-.5s.45-.5,1-.5h10.5c.55,0,1,.23,1,.5Z" style="fill: none; stroke: #fff; stroke-miterlimit: 10;"/></g><g><path d="m56.25,55c0,.27-.45.5-1,.5h-10.5c-.55,0-1-.23-1-.5s.45-.5,1-.5h10.5c.55,0,1,.23,1,.5Z" style="fill: #fff; stroke-width: 0px;"/><path d="m56.25,55c0,.27-.45.5-1,.5h-10.5c-.55,0-1-.23-1-.5s.45-.5,1-.5h10.5c.55,0,1,.23,1,.5Z" style="fill: none; stroke: #fff; stroke-miterlimit: 10;"/></g><g><circle cx="32.5" cy="25" r=".75" style="fill: #fff; stroke: #fff; stroke-miterlimit: 10;"/><circle cx="27.5" cy="25" r=".75" style="fill: #fff; stroke: #fff; stroke-miterlimit: 10;"/><circle cx="22.5" cy="25" r=".75" style="fill: #fff; stroke: #fff; stroke-miterlimit: 10;"/></g><g><circle cx="32.5" cy="40" r=".75" style="fill: #fff; stroke: #fff; stroke-miterlimit: 10;"/><circle cx="27.5" cy="40" r=".75" style="fill: #fff; stroke: #fff; stroke-miterlimit: 10;"/><circle cx="22.5" cy="40" r=".75" style="fill: #fff; stroke: #fff; stroke-miterlimit: 10;"/></g><g><circle cx="32.5" cy="55" r=".75" style="fill: #fff; stroke: #fff; stroke-miterlimit: 10;"/><circle cx="27.5" cy="55" r=".75" style="fill: #fff; stroke: #fff; stroke-miterlimit: 10;"/><circle cx="22.5" cy="55" r=".75" style="fill: #fff; stroke: #fff; stroke-miterlimit: 10;"/></g></g></svg></g></g></g><g id="service-cleanlab" class="architecture-service" transform="translate(67.58913539604899,-232.24538893331578)"><g dy="1em" alignment-baseline="middle" dominant-baseline="middle" text-anchor="middle" transform="translate(40, 80)"><g><rect class="background" style="stroke: none"/><text y="-10.1" style=""><tspan class="text-outer-tspan row" x="0" y="-0.1em" dy="1.1em"><tspan font-style="normal" class="text-inner-tspan" font-weight="normal">CleanLab</tspan></tspan></text></g></g><g><g><svg xmlns="http://www.w3.org/2000/svg" width="80" height="80" viewBox="0 0 80 80"><g><rect width="80" height="80" style="fill: #087ebf; stroke-width: 0px;"/><rect x="17.5" y="17.5" width="45" height="45" rx="2" ry="2" style="fill: none; stroke: #fff; stroke-miterlimit: 10; stroke-width: 2px;"/><line x1="17.5" y1="32.5" x2="62.5" y2="32.5" style="fill: none; stroke: #fff; stroke-miterlimit: 10; stroke-width: 2px;"/><line x1="17.5" y1="47.5" x2="62.5" y2="47.5" style="fill: none; stroke: #fff; stroke-miterlimit: 10; stroke-width: 2px;"/><g><path d="m56.25,25c0,.27-.45.5-1,.5h-10.5c-.55,0-1-.23-1-.5s.45-.5,1-.5h10.5c.55,0,1,.23,1,.5Z" style="fill: #fff; stroke-width: 0px;"/><path d="m56.25,25c0,.27-.45.5-1,.5h-10.5c-.55,0-1-.23-1-.5s.45-.5,1-.5h10.5c.55,0,1,.23,1,.5Z" style="fill: none; stroke: #fff; stroke-miterlimit: 10;"/></g><g><path d="m56.25,40c0,.27-.45.5-1,.5h-10.5c-.55,0-1-.23-1-.5s.45-.5,1-.5h10.5c.55,0,1,.23,1,.5Z" style="fill: #fff; stroke-width: 0px;"/><path d="m56.25,40c0,.27-.45.5-1,.5h-10.5c-.55,0-1-.23-1-.5s.45-.5,1-.5h10.5c.55,0,1,.23,1,.5Z" style="fill: none; stroke: #fff; stroke-miterlimit: 10;"/></g><g><path d="m56.25,55c0,.27-.45.5-1,.5h-10.5c-.55,0-1-.23-1-.5s.45-.5,1-.5h10.5c.55,0,1,.23,1,.5Z" style="fill: #fff; stroke-width: 0px;"/><path d="m56.25,55c0,.27-.45.5-1,.5h-10.5c-.55,0-1-.23-1-.5s.45-.5,1-.5h10.5c.55,0,1,.23,1,.5Z" style="fill: none; stroke: #fff; stroke-miterlimit: 10;"/></g><g><circle cx="32.5" cy="25" r=".75" style="fill: #fff; stroke: #fff; stroke-miterlimit: 10;"/><circle cx="27.5" cy="25" r=".75" style="fill: #fff; stroke: #fff; stroke-miterlimit: 10;"/><circle cx="22.5" cy="25" r=".75" style="fill: #fff; stroke: #fff; stroke-miterlimit: 10;"/></g><g><circle cx="32.5" cy="40" r=".75" style="fill: #fff; stroke: #fff; stroke-miterlimit: 10;"/><circle cx="27.5" cy="40" r=".75" style="fill: #fff; stroke: #fff; stroke-miterlimit: 10;"/><circle cx="22.5" cy="40" r=".75" style="fill: #fff; stroke: #fff; stroke-miterlimit: 10;"/></g><g><circle cx="32.5" cy="55" r=".75" style="fill: #fff; stroke: #fff; stroke-miterlimit: 10;"/><circle cx="27.5" cy="55" r=".75" style="fill: #fff; stroke: #fff; stroke-miterlimit: 10;"/><circle cx="22.5" cy="55" r=".75" style="fill: #fff; stroke: #fff; stroke-miterlimit: 10;"/></g></g></svg></g></g></g><g id="service-preprocess" class="architecture-service" transform="translate(214.03688167156793,-232.24538893331578)"><g dy="1em" alignment-baseline="middle" dominant-baseline="middle" text-anchor="middle" transform="translate(40, 80)"><g><rect class="background" style="stroke: none"/><text y="-10.1" style=""><tspan class="text-outer-tspan row" x="0" y="-0.1em" dy="1.1em"><tspan font-style="normal" class="text-inner-tspan" font-weight="normal">Augmentation</tspan></tspan></text></g></g><g><g><svg xmlns="http://www.w3.org/2000/svg" width="80" height="80" viewBox="0 0 80 80"><g><rect width="80" height="80" style="fill: #087ebf; stroke-width: 0px;"/><rect x="17.5" y="17.5" width="45" height="45" rx="2" ry="2" style="fill: none; stroke: #fff; stroke-miterlimit: 10; stroke-width: 2px;"/><line x1="17.5" y1="32.5" x2="62.5" y2="32.5" style="fill: none; stroke: #fff; stroke-miterlimit: 10; stroke-width: 2px;"/><line x1="17.5" y1="47.5" x2="62.5" y2="47.5" style="fill: none; stroke: #fff; stroke-miterlimit: 10; stroke-width: 2px;"/><g><path d="m56.25,25c0,.27-.45.5-1,.5h-10.5c-.55,0-1-.23-1-.5s.45-.5,1-.5h10.5c.55,0,1,.23,1,.5Z" style="fill: #fff; stroke-width: 0px;"/><path d="m56.25,25c0,.27-.45.5-1,.5h-10.5c-.55,0-1-.23-1-.5s.45-.5,1-.5h10.5c.55,0,1,.23,1,.5Z" style="fill: none; stroke: #fff; stroke-miterlimit: 10;"/></g><g><path d="m56.25,40c0,.27-.45.5-1,.5h-10.5c-.55,0-1-.23-1-.5s.45-.5,1-.5h10.5c.55,0,1,.23,1,.5Z" style="fill: #fff; stroke-width: 0px;"/><path d="m56.25,40c0,.27-.45.5-1,.5h-10.5c-.55,0-1-.23-1-.5s.45-.5,1-.5h10.5c.55,0,1,.23,1,.5Z" style="fill: none; stroke: #fff; stroke-miterlimit: 10;"/></g><g><path d="m56.25,55c0,.27-.45.5-1,.5h-10.5c-.55,0-1-.23-1-.5s.45-.5,1-.5h10.5c.55,0,1,.23,1,.5Z" style="fill: #fff; stroke-width: 0px;"/><path d="m56.25,55c0,.27-.45.5-1,.5h-10.5c-.55,0-1-.23-1-.5s.45-.5,1-.5h10.5c.55,0,1,.23,1,.5Z" style="fill: none; stroke: #fff; stroke-miterlimit: 10;"/></g><g><circle cx="32.5" cy="25" r=".75" style="fill: #fff; stroke: #fff; stroke-miterlimit: 10;"/><circle cx="27.5" cy="25" r=".75" style="fill: #fff; stroke: #fff; stroke-miterlimit: 10;"/><circle cx="22.5" cy="25" r=".75" style="fill: #fff; stroke: #fff; stroke-miterlimit: 10;"/></g><g><circle cx="32.5" cy="40" r=".75" style="fill: #fff; stroke: #fff; stroke-miterlimit: 10;"/><circle cx="27.5" cy="40" r=".75" style="fill: #fff; stroke: #fff; stroke-miterlimit: 10;"/><circle cx="22.5" cy="40" r=".75" style="fill: #fff; stroke: #fff; stroke-miterlimit: 10;"/></g><g><circle cx="32.5" cy="55" r=".75" style="fill: #fff; stroke: #fff; stroke-miterlimit: 10;"/><circle cx="27.5" cy="55" r=".75" style="fill: #fff; stroke: #fff; stroke-miterlimit: 10;"/><circle cx="22.5" cy="55" r=".75" style="fill: #fff; stroke: #fff; stroke-miterlimit: 10;"/></g></g></svg></g></g></g><g id="service-pytorch" class="architecture-service" transform="translate(361.42610553397344,-232.24538893331578)"><g dy="1em" alignment-baseline="middle" dominant-baseline="middle" text-anchor="middle" transform="translate(40, 80)"><g><rect class="background" style="stroke: none"/><text y="-10.1" style=""><tspan class="text-outer-tspan row" x="0" y="-0.1em" dy="1.1em"><tspan font-style="normal" class="text-inner-tspan" font-weight="normal">PyTorch</tspan></tspan></text></g></g><g><g><svg xmlns="http://www.w3.org/2000/svg" width="80" height="80" viewBox="0 0 256 310"><path fill="#EE4C2C" d="M127.825 0v45.053l-69.224 69.222c-36.229 36.744-36.225 95.853.012 133.264l1.109 1.127c37.02 37.719 97.79 37.719 135.509 0c37.341-36.65 37.715-96.577 1.12-134.37l-1.12-1.14l23.05-23.05c50.292 50.292 50.292 130.969 0 181.61c-49.244 50.292-130.27 50.292-180.562 0c-49.79-49.789-50.287-129.7-1.494-180.092l1.494-1.518zm45.403 50.99c9.258 0 16.764 7.506 16.764 16.764c0 9.259-7.506 16.764-16.764 16.764c-9.259 0-16.764-7.505-16.764-16.764c0-9.258 7.505-16.764 16.764-16.764"/></svg></g></g></g><g id="service-mlflow" class="architecture-service" transform="translate(561.6900114942241,-232.24538893331578)"><g dy="1em" alignment-baseline="middle" dominant-baseline="middle" text-anchor="middle" transform="translate(40, 80)"><g><rect class="background" style="stroke: none"/><text y="-10.1" style=""><tspan class="text-outer-tspan row" x="0" y="-0.1em" dy="1.1em"><tspan font-style="normal" class="text-inner-tspan" font-weight="normal">MLflow</tspan><tspan font-style="normal" class="text-inner-tspan" font-weight="normal"> Tracking</tspan></tspan></text></g></g><g><g><svg xmlns="http://www.w3.org/2000/svg" width="80" height="80" viewBox="0 0 24 24"><path fill="currentColor" d="M11.883.002a12.044 12.044 0 0 0-9.326 19.463l3.668-2.694A7.573 7.573 0 0 1 12.043 4.45v2.867l6.908-5.14A12 12 0 0 0 11.883.002m9.562 4.533L17.777 7.23a7.573 7.573 0 0 1-5.818 12.322v-2.867l-6.908 5.14a12.046 12.046 0 0 0 16.394-17.29"/></svg></g></g></g><g id="service-registry" class="architecture-service" transform="translate(361.42610553397344,-42.44524062418648)"><g dy="1em" alignment-baseline="middle" dominant-baseline="middle" text-anchor="middle" transform="translate(40, 80)"><g><rect class="background" style="stroke: none"/><text y="-10.1" style=""><tspan class="text-outer-tspan row" x="0" y="-0.1em" dy="1.1em"><tspan font-style="normal" class="text-inner-tspan" font-weight="normal">Model</tspan><tspan font-style="normal" class="text-inner-tspan" font-weight="normal"> Registry</tspan></tspan></text></g></g><g><g><svg xmlns="http://www.w3.org/2000/svg" width="80" height="80" viewBox="0 0 24 24"><path fill="currentColor" d="M11.883.002a12.044 12.044 0 0 0-9.326 19.463l3.668-2.694A7.573 7.573 0 0 1 12.043 4.45v2.867l6.908-5.14A12 12 0 0 0 11.883.002m9.562 4.533L17.777 7.23a7.573 7.573 0 0 1-5.818 12.322v-2.867l-6.908 5.14a12.046 12.046 0 0 0 16.394-17.29"/></svg></g></g></g><g id="service-fastapi" class="architecture-service" transform="translate(361.42610553397344,146.79077446735977)"><g dy="1em" alignment-baseline="middle" dominant-baseline="middle" text-anchor="middle" transform="translate(40, 80)"><g><rect class="background" style="stroke: none"/><text y="-10.1" style=""><tspan class="text-outer-tspan row" x="0" y="-0.1em" dy="1.1em"><tspan font-style="normal" class="text-inner-tspan" font-weight="normal">FastAPI</tspan></tspan></text></g></g><g><g><svg xmlns="http://www.w3.org/2000/svg" width="80" height="80" viewBox="0 0 256 256"><path fill="#009688" d="M128 0C57.33 0 0 57.33 0 128s57.33 128 128 128s128-57.33 128-128S198.67 0 128 0m-6.67 230.605v-80.288H76.699l64.128-124.922v80.288h42.966z"/></svg></g></g></g><g id="service-nginx" class="architecture-service" transform="translate(561.6900114942241,146.79077446735977)"><g dy="1em" alignment-baseline="middle" dominant-baseline="middle" text-anchor="middle" transform="translate(40, 80)"><g><rect class="background" style="stroke: none"/><text y="-10.1" style=""><tspan class="text-outer-tspan row" x="0" y="-0.1em" dy="1.1em"><tspan font-style="normal" class="text-inner-tspan" font-weight="normal">Nginx</tspan></tspan></text></g></g><g><g><svg xmlns="http://www.w3.org/2000/svg" width="80" height="80" viewBox="0 0 256 291"><path fill="#009639" d="M2.054 218.187c1.32 2.347 3.227 4.108 5.575 5.428l112.962 65.137c4.695 2.787 10.416 2.787 14.964 0l112.963-65.137c4.695-2.64 7.482-7.629 7.482-13.057V80.284c0-5.428-2.787-10.416-7.482-13.056L135.555 2.09c-4.694-2.788-10.416-2.788-14.964 0L7.63 67.228C2.787 69.868 0 74.856 0 80.284v130.42c0 2.642.587 5.136 2.054 7.483"/><path fill="#FFF" d="M91.837 195.154a14.463 14.463 0 0 1-14.524 14.524a14.463 14.463 0 0 1-14.523-14.524V95.542c0-7.776 6.895-14.084 16.43-14.084c6.896 0 14.965 2.787 19.806 8.802l4.4 5.282l60.737 72.618V95.835a14.463 14.463 0 0 1 14.524-14.524a14.463 14.463 0 0 1 14.523 14.524v99.613c0 7.775-6.895 14.083-16.43 14.083c-6.896 0-14.965-2.787-19.806-8.802l-65.137-77.754z"/></svg></g></g></g><g id="service-minio" class="architecture-service" transform="translate(67.58913539604899,291.7453889333158)"><g dy="1em" alignment-baseline="middle" dominant-baseline="middle" text-anchor="middle" transform="translate(40, 80)"><g><rect class="background" style="stroke: none"/><text y="-10.1" style=""><tspan class="text-outer-tspan row" x="0" y="-0.1em" dy="1.1em"><tspan font-style="normal" class="text-inner-tspan" font-weight="normal">MinIO</tspan><tspan font-style="normal" class="text-inner-tspan" font-weight="normal"> Logs</tspan></tspan></text></g></g><g><g><svg xmlns="http://www.w3.org/2000/svg" width="80" height="80" viewBox="0 0 24 24"><path fill="currentColor" d="M13.207.006a2.16 2.16 0 0 0-1.62.582a2.15 2.15 0 0 0-.095 3.035l3.408 3.55a3.042 3.042 0 0 1-.663 4.688l-.463.239V7.285a15.42 15.42 0 0 0-8.018 10.487v.017l6.549-3.328v7.621L13.779 24V13.682l.897-.463a4.443 4.443 0 0 0 1.22-7.03l-3.37-3.525a.75.75 0 0 1 .037-1.055a.75.75 0 0 1 1.056.038l.467.486l-.006.006l4.07 4.244a.057.057 0 0 0 .082 0a.06.06 0 0 0 0-.07l-3.14-5.143l-.149.143l.149-.145C14.494.393 13.829.054 13.207.006m-.902 9.865v2.994l-4.152 2.149a14 14 0 0 1 2.767-3.928a14 14 0 0 1 1.385-1.215"/></svg></g></g></g><g id="service-prom" class="architecture-service" transform="translate(361.42610553397344,291.7453889333158)"><g dy="1em" alignment-baseline="middle" dominant-baseline="middle" text-anchor="middle" transform="translate(40, 80)"><g><rect class="background" style="stroke: none"/><text y="-10.1" style=""><tspan class="text-outer-tspan row" x="0" y="-0.1em" dy="1.1em"><tspan font-style="normal" class="text-inner-tspan" font-weight="normal">Prometheus</tspan></tspan></text></g></g><g><g><svg xmlns="http://www.w3.org/2000/svg" width="80" height="80" viewBox="0 0 256 257"><path fill="#DA4E31" d="M128.001.667C57.311.667 0 57.971 0 128.664c0 70.69 57.311 127.998 128.001 127.998S256 199.354 256 128.664C256 57.97 198.689.667 128.001.667m0 239.56c-20.112 0-36.419-13.435-36.419-30.004h72.838c0 16.566-16.306 30.004-36.419 30.004m60.153-39.94H67.842V178.47h120.314v21.816zm-.432-33.045H68.185c-.398-.458-.804-.91-1.188-1.375c-12.315-14.954-15.216-22.76-18.032-30.716c-.048-.262 14.933 3.06 25.556 5.45c0 0 5.466 1.265 13.458 2.722c-7.673-8.994-12.23-20.428-12.23-32.116c0-25.658 19.68-48.079 12.58-66.201c6.91.562 14.3 14.583 14.8 36.505c7.346-10.152 10.42-28.69 10.42-40.056c0-11.769 7.755-25.44 15.512-25.907c-6.915 11.396 1.79 21.165 9.53 45.4c2.902 9.103 2.532 24.423 4.772 34.138c.744-20.178 4.213-49.62 17.014-59.784c-5.647 12.8.836 28.818 5.27 36.518c7.154 12.424 11.49 21.836 11.49 39.638c0 11.936-4.407 23.173-11.84 31.958c8.452-1.586 14.289-3.016 14.289-3.016l27.45-5.355c.002-.002-3.987 16.401-19.314 32.197"/></svg></g></g></g><g id="service-evidently" class="architecture-service" transform="translate(214.03688167156793,291.7453889333158)"><g dy="1em" alignment-baseline="middle" dominant-baseline="middle" text-anchor="middle" transform="translate(40, 80)"><g><rect class="background" style="stroke: none"/><text y="-10.1" style=""><tspan class="text-outer-tspan row" x="0" y="-0.1em" dy="1.1em"><tspan font-style="normal" class="text-inner-tspan" font-weight="normal">Evidently</tspan></tspan></text></g></g><g><g><svg xmlns="http://www.w3.org/2000/svg" width="80" height="80" viewBox="0 0 80 80"><g><rect width="80" height="80" style="fill: #087ebf; stroke-width: 0px;"/><rect x="17.5" y="17.5" width="45" height="45" rx="2" ry="2" style="fill: none; stroke: #fff; stroke-miterlimit: 10; stroke-width: 2px;"/><line x1="17.5" y1="32.5" x2="62.5" y2="32.5" style="fill: none; stroke: #fff; stroke-miterlimit: 10; stroke-width: 2px;"/><line x1="17.5" y1="47.5" x2="62.5" y2="47.5" style="fill: none; stroke: #fff; stroke-miterlimit: 10; stroke-width: 2px;"/><g><path d="m56.25,25c0,.27-.45.5-1,.5h-10.5c-.55,0-1-.23-1-.5s.45-.5,1-.5h10.5c.55,0,1,.23,1,.5Z" style="fill: #fff; stroke-width: 0px;"/><path d="m56.25,25c0,.27-.45.5-1,.5h-10.5c-.55,0-1-.23-1-.5s.45-.5,1-.5h10.5c.55,0,1,.23,1,.5Z" style="fill: none; stroke: #fff; stroke-miterlimit: 10;"/></g><g><path d="m56.25,40c0,.27-.45.5-1,.5h-10.5c-.55,0-1-.23-1-.5s.45-.5,1-.5h10.5c.55,0,1,.23,1,.5Z" style="fill: #fff; stroke-width: 0px;"/><path d="m56.25,40c0,.27-.45.5-1,.5h-10.5c-.55,0-1-.23-1-.5s.45-.5,1-.5h10.5c.55,0,1,.23,1,.5Z" style="fill: none; stroke: #fff; stroke-miterlimit: 10;"/></g><g><path d="m56.25,55c0,.27-.45.5-1,.5h-10.5c-.55,0-1-.23-1-.5s.45-.5,1-.5h10.5c.55,0,1,.23,1,.5Z" style="fill: #fff; stroke-width: 0px;"/><path d="m56.25,55c0,.27-.45.5-1,.5h-10.5c-.55,0-1-.23-1-.5s.45-.5,1-.5h10.5c.55,0,1,.23,1,.5Z" style="fill: none; stroke: #fff; stroke-miterlimit: 10;"/></g><g><circle cx="32.5" cy="25" r=".75" style="fill: #fff; stroke: #fff; stroke-miterlimit: 10;"/><circle cx="27.5" cy="25" r=".75" style="fill: #fff; stroke: #fff; stroke-miterlimit: 10;"/><circle cx="22.5" cy="25" r=".75" style="fill: #fff; stroke: #fff; stroke-miterlimit: 10;"/></g><g><circle cx="32.5" cy="40" r=".75" style="fill: #fff; stroke: #fff; stroke-miterlimit: 10;"/><circle cx="27.5" cy="40" r=".75" style="fill: #fff; stroke: #fff; stroke-miterlimit: 10;"/><circle cx="22.5" cy="40" r=".75" style="fill: #fff; stroke: #fff; stroke-miterlimit: 10;"/></g><g><circle cx="32.5" cy="55" r=".75" style="fill: #fff; stroke: #fff; stroke-miterlimit: 10;"/><circle cx="27.5" cy="55" r=".75" style="fill: #fff; stroke: #fff; stroke-miterlimit: 10;"/><circle cx="22.5" cy="55" r=".75" style="fill: #fff; stroke: #fff; stroke-miterlimit: 10;"/></g></g></svg></g></g></g><g id="service-grafana" class="architecture-service" transform="translate(561.6900114942241,291.7453889333158)"><g dy="1em" alignment-baseline="middle" dominant-baseline="middle" text-anchor="middle" transform="translate(40, 80)"><g><rect class="background" style="stroke: none"/><text y="-10.1" style=""><tspan class="text-outer-tspan row" x="0" y="-0.1em" dy="1.1em"><tspan font-style="normal" class="text-inner-tspan" font-weight="normal">Grafana</tspan></tspan></text></g></g><g><g><svg xmlns="http://www.w3.org/2000/svg" width="80" height="80" viewBox="0 0 256 279"><defs><linearGradient id="IconifyId19d2fe60d3fd266d80" x1="49.995%" x2="49.995%" y1="122.45%" y2="31.139%"><stop offset="0%" stop-color="#FFF100"/><stop offset="100%" stop-color="#F05A28"/></linearGradient></defs><path fill="url(#IconifyId19d2fe60d3fd266d80)" d="M255.59 122.775c-.46-4.675-1.226-10.04-2.759-16.017a98 98 0 0 0-7.204-19.16a106.7 106.7 0 0 0-13.412-20.54c-2.222-2.681-4.675-5.287-7.28-7.816c3.908-15.558-4.752-29.046-4.752-29.046c-14.945-.92-24.448 4.675-27.973 7.204c-.613-.23-1.15-.537-1.763-.767c-2.529-.996-5.135-1.992-7.894-2.835a130 130 0 0 0-8.277-2.3c-2.835-.69-5.67-1.226-8.583-1.686c-.537-.076-.996-.153-1.533-.23C157.646 8.738 138.946 0 138.946 0c-20.922 13.258-24.831 31.805-24.831 31.805s-.077.383-.23 1.073c-1.15.307-2.299.69-3.449.996c-1.609.46-3.218 1.073-4.751 1.686a123 123 0 0 0-4.752 1.916a117 117 0 0 0-9.35 4.599c-2.989 1.686-5.9 3.525-8.737 5.441l-.766-.307c-28.97-11.036-54.643 2.223-54.643 2.223c-2.376 30.809 11.572 50.198 14.331 53.724c-.69 1.916-1.303 3.832-1.916 5.748c-2.146 6.974-3.755 14.101-4.751 21.535c-.154 1.073-.307 2.146-.384 3.219C7.894 146.916 0 173.97 0 173.97c22.302 25.674 48.359 27.283 48.359 27.283l.077-.076c3.295 5.9 7.127 11.495 11.419 16.783a112 112 0 0 0 5.671 6.362c-8.124 23.298 1.15 42.61 1.15 42.61c24.83.92 41.155-10.882 44.603-13.564a85 85 0 0 0 7.511 2.222a109.7 109.7 0 0 0 23.298 3.449c1.916.076 3.909.153 5.825.076h2.759l1.226-.076v.076c11.726 16.708 32.265 19.084 32.265 19.084c14.638-15.405 15.48-30.733 15.48-34.028v-1.38c3.066-2.145 5.979-4.445 8.738-6.974c5.824-5.288 10.959-11.342 15.25-17.857l1.15-1.839c16.554.92 28.28-10.27 28.28-10.27c-2.759-17.243-12.569-25.673-14.638-27.283c0 0-.077-.076-.23-.153s-.153-.153-.153-.153c-.077-.077-.23-.154-.383-.23c.076-1.073.153-2.07.23-3.142c.153-1.84.153-3.756.153-5.595v-2.913l-.077-1.149l-.076-1.533c0-.536-.077-.996-.154-1.456c-.076-.46-.076-.996-.153-1.456l-.153-1.456l-.23-1.456c-.307-1.916-.613-3.756-1.073-5.672c-1.763-7.433-4.675-14.484-8.43-20.845a70.4 70.4 0 0 0-14.025-16.707c-5.365-4.752-11.42-8.584-17.704-11.42c-6.36-2.835-12.952-4.675-19.543-5.518c-3.295-.46-6.59-.613-9.886-.536h-2.453l-1.226.077c-.46 0-.92.076-1.303.076a52 52 0 0 0-4.981.69c-6.591 1.226-12.799 3.602-18.24 6.897s-10.193 7.358-14.025 11.956a54.7 54.7 0 0 0-8.89 15.021a52.9 52.9 0 0 0-3.525 16.094c-.077 1.303-.077 2.683-.077 3.986v.996l.077 1.073c.076.613.076 1.303.153 1.916c.23 2.682.766 5.288 1.456 7.74c1.456 4.982 3.755 9.503 6.59 13.335s6.285 6.975 9.887 9.504c3.602 2.452 7.51 4.215 11.343 5.364c3.832 1.15 7.664 1.61 11.266 1.61h1.993c.23 0 .46 0 .689-.077c.383 0 .766-.077 1.15-.077c.076 0 .23 0 .306-.076l.383-.077c.23 0 .46-.076.69-.076c.46-.077.843-.154 1.303-.23s.843-.154 1.226-.307c.843-.153 1.61-.46 2.376-.69c1.533-.536 3.066-1.15 4.368-1.839c1.38-.69 2.606-1.533 3.832-2.3c.307-.23.69-.459.997-.766c1.226-.996 1.456-2.835.46-4.061c-.844-1.073-2.376-1.38-3.603-.69l-.92.46a25 25 0 0 1-3.295 1.38c-1.15.382-2.375.689-3.602.919c-.613.076-1.226.153-1.916.23c-.306 0-.613.076-.996.076h-1.84c-.383 0-.766 0-1.149-.076h-.46c-.153 0-.383 0-.536-.077c-.383-.077-.69-.077-1.073-.153c-2.836-.383-5.671-1.226-8.354-2.453a29.3 29.3 0 0 1-7.74-5.058c-2.376-2.146-4.445-4.675-6.055-7.587s-2.759-6.131-3.295-9.503c-.23-1.686-.383-3.449-.307-5.135c0-.46.077-.92.077-1.38v-.613c0-.23.077-.46.077-.69c.076-.919.23-1.839.383-2.758c1.303-7.358 4.981-14.562 10.653-20.003c1.456-1.38 2.988-2.606 4.598-3.755a31.7 31.7 0 0 1 5.211-2.99a36 36 0 0 1 5.672-2.068c1.915-.537 3.908-.844 5.977-1.073c.997-.077 1.993-.154 3.066-.154h2.376l.843.077c2.222.153 4.368.46 6.514.996c4.292.92 8.507 2.53 12.415 4.675c7.818 4.369 14.485 11.113 18.547 19.237c2.07 4.061 3.525 8.43 4.215 12.951c.153 1.15.307 2.3.383 3.45l.077.842l.077.843v3.296c0 .536-.077 1.456-.077 1.992c-.077 1.227-.23 2.53-.383 3.756s-.383 2.452-.613 3.678a50 50 0 0 1-.843 3.602a64 64 0 0 1-2.3 7.128a62.4 62.4 0 0 1-7.204 13.105c-5.9 8.124-13.948 14.715-23.144 18.93c-4.599 2.069-9.427 3.602-14.408 4.368c-2.453.46-4.982.69-7.511.766h-3.832a36 36 0 0 1-4.062-.23c-5.365-.383-10.653-1.379-15.864-2.835c-5.135-1.456-10.116-3.525-14.868-5.978c-9.427-5.058-17.933-11.956-24.524-20.31a79 79 0 0 1-8.584-13.334a79 79 0 0 1-5.671-14.638c-1.38-5.058-2.223-10.193-2.606-15.405l-.077-.996v-6.821c.077-2.529.307-5.211.614-7.817c.306-2.606.766-5.288 1.302-7.894c.537-2.605 1.15-5.211 1.916-7.817a103 103 0 0 1 5.442-14.791c4.368-9.35 10.04-17.704 16.86-24.371c1.686-1.686 3.449-3.22 5.288-4.752a78 78 0 0 1 5.748-4.138c1.916-1.303 3.985-2.453 6.055-3.526a40 40 0 0 1 3.142-1.533l3.219-1.379c2.146-.92 4.368-1.686 6.667-2.376c.537-.153 1.15-.306 1.686-.536c.537-.154 1.15-.307 1.686-.46c1.15-.307 2.3-.613 3.45-.843c.536-.153 1.149-.23 1.762-.383c.613-.154 1.15-.23 1.763-.384c.613-.076 1.15-.23 1.762-.306l.843-.153l.92-.154c.613-.076 1.15-.153 1.763-.23c.69-.076 1.302-.153 1.992-.23c.537-.076 1.456-.153 1.993-.23c.383-.076.843-.076 1.226-.153l.843-.076l.383-.077h.46c.69-.077 1.303-.077 1.993-.153l.996-.077h.767c.536 0 1.149-.076 1.685-.076a99 99 0 0 1 6.745 0c4.445.153 8.813.69 13.028 1.456c8.507 1.61 16.478 4.291 23.758 7.893c7.28 3.526 13.719 7.894 19.39 12.646c.383.306.69.613 1.073.92c.306.306.69.613.996.92c.69.612 1.303 1.225 1.993 1.838c.69.614 1.303 1.227 1.916 1.84a44 44 0 0 1 1.839 1.916c2.376 2.529 4.598 5.058 6.59 7.664a99 99 0 0 1 9.734 15.25l.46.92l.46.92c.306.613.613 1.226.843 1.84c.306.613.536 1.149.843 1.762c.23.613.536 1.15.766 1.763c.92 2.299 1.84 4.521 2.53 6.59c1.149 3.373 1.992 6.362 2.682 8.967a2.043 2.043 0 0 0 2.299 1.61c1.15-.077 1.992-.996 1.992-2.146c.077-2.759 0-6.054-.383-9.81"/></svg></g></g></g></g><g class="architecture-groups"/></svg>