<svg id="my-svg" width="100%" xmlns="http://www.w3.org/2000/svg" xmlns:xlink="http://www.w3.org/1999/xlink" style="max-width: 1167.51px; background-color: transparent;" viewBox="-528.5379638671875 -110.99955749511719 1167.505615234375 403.2863464355469" role="graphics-document document" aria-roledescription="architecture"><style>#my-svg{font-family:"trebuchet ms",verdana,arial,sans-serif;font-size:16px;fill:#333;}@keyframes edge-animation-frame{from{stroke-dashoffset:0;}}@keyframes dash{to{stroke-dashoffset:0;}}#my-svg .edge-animation-slow{stroke-dasharray:9,5!important;stroke-dashoffset:900;animation:dash 50s linear infinite;stroke-linecap:round;}#my-svg .edge-animation-fast{stroke-dasharray:9,5!important;stroke-dashoffset:900;animation:dash 20s linear infinite;stroke-linecap:round;}#my-svg .error-icon{fill:#552222;}#my-svg .error-text{fill:#552222;stroke:#552222;}#my-svg .edge-thickness-normal{stroke-width:1px;}#my-svg .edge-thickness-thick{stroke-width:3.5px;}#my-svg .edge-pattern-solid{stroke-dasharray:0;}#my-svg .edge-thickness-invisible{stroke-width:0;fill:none;}#my-svg .edge-pattern-dashed{stroke-dasharray:3;}#my-svg .edge-pattern-dotted{stroke-dasharray:2;}#my-svg .marker{fill:#333333;stroke:#333333;}#my-svg .marker.cross{stroke:#333333;}#my-svg svg{font-family:"trebuchet ms",verdana,arial,sans-serif;font-size:16px;}#my-svg p{margin:0;}#my-svg .edge{stroke-width:3;stroke:#333333;fill:none;}#my-svg .arrow{fill:#333333;}#my-svg .node-bkg{fill:none;stroke:hsl(240, 60%, 86.2745098039%);stroke-width:2px;stroke-dasharray:8;}#my-svg .node-icon-text{display:flex;align-items:center;}#my-svg .node-icon-text&gt;div{color:#fff;margin:1px;height:fit-content;text-align:center;overflow:hidden;display:-webkit-box;-webkit-box-orient:vertical;}#my-svg :root{--mermaid-font-family:"trebuchet ms",verdana,arial,sans-serif;}</style><g/><g class="architecture-edges"><g><path d="M -408.53796622615437,-30.999283971675354 L -349.0702998388647,-30.999283971675354 L-289.6026334515751,-30.999283971675354" class="edge" id="L_client_nginx_0"/><polygon points="13.333333333333334,6.666666666666667 0,13.333333333333334 0,0" transform="translate(-300.93596678490843,-37.66595063834202)" class="arrow"/></g><g><path d="M -209.60263345157512,-30.999283971675354 L -150.69472735311143,-30.999283971675354 L-91.78682125464778,-30.999283971675354" class="edge" id="L_nginx_gunicorn_0"/><polygon points="13.333333333333334,6.666666666666667 0,13.333333333333334 0,0" transform="translate(-103.1201545879811,-37.66595063834202)" class="arrow"/></g><g><path d="M -11.786821254647776,-30.999283971675354 L 46.92665753096853,-30.999283971675354 L105.64013631658483,-30.999283971675354" class="edge" id="L_gunicorn_worker1_0"/><polygon points="13.333333333333334,6.666666666666667 0,13.333333333333334 0,0" transform="translate(94.3068029832515,-37.66595063834202)" class="arrow"/></g><g><path d="M -51.786821254647776,9.000716028324646 L -51.786821254647776,69.75 L-51.786821254647776,130.49928397167537" class="edge" id="L_gunicorn_worker2_0"/><polygon points="0,0 13.333333333333334,0 6.666666666666667,13.333333333333334" transform="translate(-58.45348792131444,119.16595063834204)" class="arrow"/></g><g><path d="M 185.64013631658483,-30.999283971675354 L 245.43914025658552,-30.999283971675354 L305.23814419658623,-30.999283971675354" class="edge" id="L_worker1_mlflow_0"/><polygon points="13.333333333333334,6.666666666666667 0,13.333333333333334 0,0" transform="translate(293.9048108632529,-37.66595063834202)" class="arrow"/></g><g><path d="M 385.23814419658623,-30.999283971675354 L 445.13805521137033,-30.999283971675354 L505.03796622615437,-30.999283971675354" class="edge" id="L_mlflow_artifacts_0"/><polygon points="13.333333333333334,6.666666666666667 0,13.333333333333334 0,0" transform="translate(493.70463289282105,-37.66595063834202)" class="arrow"/></g><g><path d="M 145.64013631658483,9.000716028324646 L 212.51728382815435,57.51800718334256 L279.3944313397239,106.03529833836048" class="edge" id="L_worker1_logs_0"/><polygon points="0,0 13.333333333333334,0 6.666666666666667,13.333333333333334" transform="translate(272.7277646730572,94.70196500502715)" class="arrow"/></g><g><path d="M 145.64013631658483,9.000716028324646 L 145.64013631658483,69.75 L145.64013631658483,130.49928397167537" class="edge" id="L_worker1_prom_0"/><polygon points="0,0 13.333333333333334,0 6.666666666666667,13.333333333333334" transform="translate(138.97346964991817,119.16595063834204)" class="arrow"/></g></g><g class="architecture-services"><g id="service-client" class="architecture-service" transform="translate(-488.53796622615437,-70.99928397167535)"><g dy="1em" alignment-baseline="middle" dominant-baseline="middle" text-anchor="middle" transform="translate(40, 80)"><g><rect class="background" style="stroke: none"/><text y="-10.1" style=""><tspan class="text-outer-tspan row" x="0" y="-0.1em" dy="1.1em"><tspan font-style="normal" class="text-inner-tspan" font-weight="normal">Client</tspan></tspan></text></g></g><g><g><svg xmlns="http://www.w3.org/2000/svg" width="80" height="80" viewBox="0 0 80 80"><g><rect width="80" height="80" style="fill: #087ebf; stroke-width: 0px;"/><circle cx="40" cy="40" r="22.5" style="fill: none; stroke: #fff; stroke-miterlimit: 10; stroke-width: 2px;"/><line x1="40" y1="17.5" x2="40" y2="62.5" style="fill: none; stroke: #fff; stroke-miterlimit: 10; stroke-width: 2px;"/><line x1="17.5" y1="40" x2="62.5" y2="40" style="fill: none; stroke: #fff; stroke-miterlimit: 10; stroke-width: 2px;"/><path d="m39.99,17.51c-15.28,11.1-15.28,33.88,0,44.98" style="fill: none; stroke: #fff; stroke-miterlimit: 10; stroke-width: 2px;"/><path d="m40.01,17.51c15.28,11.1,15.28,33.88,0,44.98" style="fill: none; stroke: #fff; stroke-miterlimit: 10; stroke-width: 2px;"/><line x1="19.75" y1="30.1" x2="60.25" y2="30.1" style="fill: none; stroke: #fff; stroke-miterlimit: 10; stroke-width: 2px;"/><line x1="19.75" y1="49.9" x2="60.25" y2="49.9" style="fill: none; stroke: #fff; stroke-miterlimit: 10; stroke-width: 2px;"/></g></svg></g></g></g><g id="service-nginx" class="architecture-service" transform="translate(-289.6026334515751,-70.99928397167535)"><g dy="1em" alignment-baseline="middle" dominant-baseline="middle" text-anchor="middle" transform="translate(40, 80)"><g><rect class="background" style="stroke: none"/><text y="-10.1" style=""><tspan class="text-outer-tspan row" x="0" y="-0.1em" dy="1.1em"><tspan font-style="normal" class="text-inner-tspan" font-weight="normal">Nginx</tspan><tspan font-style="normal" class="text-inner-tspan" font-weight="normal"> port</tspan><tspan font-style="normal" class="text-inner-tspan" font-weight="normal"> 80</tspan></tspan></text></g></g><g><g><svg xmlns="http://www.w3.org/2000/svg" width="80" height="80" viewBox="0 0 256 291"><path fill="#009639" d="M2.054 218.187c1.32 2.347 3.227 4.108 5.575 5.428l112.962 65.137c4.695 2.787 10.416 2.787 14.964 0l112.963-65.137c4.695-2.64 7.482-7.629 7.482-13.057V80.284c0-5.428-2.787-10.416-7.482-13.056L135.555 2.09c-4.694-2.788-10.416-2.788-14.964 0L7.63 67.228C2.787 69.868 0 74.856 0 80.284v130.42c0 2.642.587 5.136 2.054 7.483"/><path fill="#FFF" d="M91.837 195.154a14.463 14.463 0 0 1-14.524 14.524a14.463 14.463 0 0 1-14.523-14.524V95.542c0-7.776 6.895-14.084 16.43-14.084c6.896 0 14.965 2.787 19.806 8.802l4.4 5.282l60.737 72.618V95.835a14.463 14.463 0 0 1 14.524-14.524a14.463 14.463 0 0 1 14.523 14.524v99.613c0 7.775-6.895 14.083-16.43 14.083c-6.896 0-14.965-2.787-19.806-8.802l-65.137-77.754z"/></svg></g></g></g><g id="service-gunicorn" class="architecture-service" transform="translate(-91.78682125464778,-70.99928397167535)"><g dy="1em" alignment-baseline="middle" dominant-baseline="middle" text-anchor="middle" transform="translate(40, 80)"><g><rect class="background" style="stroke: none"/><text y="-10.1" style=""><tspan class="text-outer-tspan row" x="0" y="-0.1em" dy="1.1em"><tspan font-style="normal" class="text-inner-tspan" font-weight="normal">Gunicorn</tspan><tspan font-style="normal" class="text-inner-tspan" font-weight="normal"> port</tspan></tspan><tspan class="text-outer-tspan row" x="0" y="1em" dy="1.1em"><tspan font-style="normal" class="text-inner-tspan" font-weight="normal">8000</tspan></tspan></text></g></g><g><g><svg xmlns="http://www.w3.org/2000/svg" width="80" height="80" viewBox="0 0 80 80"><g><rect width="80" height="80" style="fill: #087ebf; stroke-width: 0px;"/><rect x="17.5" y="17.5" width="45" height="45" rx="2" ry="2" style="fill: none; stroke: #fff; stroke-miterlimit: 10; stroke-width: 2px;"/><line x1="17.5" y1="32.5" x2="62.5" y2="32.5" style="fill: none; stroke: #fff; stroke-miterlimit: 10; stroke-width: 2px;"/><line x1="17.5" y1="47.5" x2="62.5" y2="47.5" style="fill: none; stroke: #fff; stroke-miterlimit: 10; stroke-width: 2px;"/><g><path d="m56.25,25c0,.27-.45.5-1,.5h-10.5c-.55,0-1-.23-1-.5s.45-.5,1-.5h10.5c.55,0,1,.23,1,.5Z" style="fill: #fff; stroke-width: 0px;"/><path d="m56.25,25c0,.27-.45.5-1,.5h-10.5c-.55,0-1-.23-1-.5s.45-.5,1-.5h10.5c.55,0,1,.23,1,.5Z" style="fill: none; stroke: #fff; stroke-miterlimit: 10;"/></g><g><path d="m56.25,40c0,.27-.45.5-1,.5h-10.5c-.55,0-1-.23-1-.5s.45-.5,1-.5h10.5c.55,0,1,.23,1,.5Z" style="fill: #fff; stroke-width: 0px;"/><path d="m56.25,40c0,.27-.45.5-1,.5h-10.5c-.55,0-1-.23-1-.5s.45-.5,1-.5h10.5c.55,0,1,.23,1,.5Z" style="fill: none; stroke: #fff; stroke-miterlimit: 10;"/></g><g><path d="m56.25,55c0,.27-.45.5-1,.5h-10.5c-.55,0-1-.23-1-.5s.45-.5,1-.5h10.5c.55,0,1,.23,1,.5Z" style="fill: #fff; stroke-width: 0px;"/><path d="m56.25,55c0,.27-.45.5-1,.5h-10.5c-.55,0-1-.23-1-.5s.45-.5,1-.5h10.5c.55,0,1,.23,1,.5Z" style="fill: none; stroke: #fff; stroke-miterlimit: 10;"/></g><g><circle cx="32.5" cy="25" r=".75" style="fill: #fff; stroke: #fff; stroke-miterlimit: 10;"/><circle cx="27.5" cy="25" r=".75" style="fill: #fff; stroke: #fff; stroke-miterlimit: 10;"/><circle cx="22.5" cy="25" r=".75" style="fill: #fff; stroke: #fff; stroke-miterlimit: 10;"/></g><g><circle cx="32.5" cy="40" r=".75" style="fill: #fff; stroke: #fff; stroke-miterlimit: 10;"/><circle cx="27.5" cy="40" r=".75" style="fill: #fff; stroke: #fff; stroke-miterlimit: 10;"/><circle cx="22.5" cy="40" r=".75" style="fill: #fff; stroke: #fff; stroke-miterlimit: 10;"/></g><g><circle cx="32.5" cy="55" r=".75" style="fill: #fff; stroke: #fff; stroke-miterlimit: 10;"/><circle cx="27.5" cy="55" r=".75" style="fill: #fff; stroke: #fff; stroke-miterlimit: 10;"/><circle cx="22.5" cy="55" r=".75" style="fill: #fff; stroke: #fff; stroke-miterlimit: 10;"/></g></g></svg></g></g></g><g id="service-worker1" class="architecture-service" transform="translate(105.64013631658483,-70.99928397167535)"><g dy="1em" alignment-baseline="middle" dominant-baseline="middle" text-anchor="middle" transform="translate(40, 80)"><g><rect class="background" style="stroke: none"/><text y="-10.1" style=""><tspan class="text-outer-tspan row" x="0" y="-0.1em" dy="1.1em"><tspan font-style="normal" class="text-inner-tspan" font-weight="normal">Uvicorn</tspan><tspan font-style="normal" class="text-inner-tspan" font-weight="normal"> Worker</tspan></tspan><tspan class="text-outer-tspan row" x="0" y="1em" dy="1.1em"><tspan font-style="normal" class="text-inner-tspan" font-weight="normal">1</tspan></tspan></text></g></g><g><g><svg xmlns="http://www.w3.org/2000/svg" width="80" height="80" viewBox="0 0 256 256"><path fill="#009688" d="M128 0C57.33 0 0 57.33 0 128s57.33 128 128 128s128-57.33 128-128S198.67 0 128 0m-6.67 230.605v-80.288H76.699l64.128-124.922v80.288h42.966z"/></svg></g></g></g><g id="service-worker2" class="architecture-service" transform="translate(-91.78682125464778,130.49928397167537)"><g dy="1em" alignment-baseline="middle" dominant-baseline="middle" text-anchor="middle" transform="translate(40, 80)"><g><rect class="background" style="stroke: none"/><text y="-10.1" style=""><tspan class="text-outer-tspan row" x="0" y="-0.1em" dy="1.1em"><tspan font-style="normal" class="text-inner-tspan" font-weight="normal">Uvicorn</tspan><tspan font-style="normal" class="text-inner-tspan" font-weight="normal"> Worker</tspan></tspan><tspan class="text-outer-tspan row" x="0" y="1em" dy="1.1em"><tspan font-style="normal" class="text-inner-tspan" font-weight="normal">2</tspan></tspan></text></g></g><g><g><svg xmlns="http://www.w3.org/2000/svg" width="80" height="80" viewBox="0 0 256 256"><path fill="#009688" d="M128 0C57.33 0 0 57.33 0 128s57.33 128 128 128s128-57.33 128-128S198.67 0 128 0m-6.67 230.605v-80.288H76.699l64.128-124.922v80.288h42.966z"/></svg></g></g></g><g id="service-mlflow" class="architecture-service" transform="translate(305.23814419658623,-70.99928397167535)"><g dy="1em" alignment-baseline="middle" dominant-baseline="middle" text-anchor="middle" transform="translate(40, 80)"><g><rect class="background" style="stroke: none"/><text y="-10.1" style=""><tspan class="text-outer-tspan row" x="0" y="-0.1em" dy="1.1em"><tspan font-style="normal" class="text-inner-tspan" font-weight="normal">MLflow</tspan><tspan font-style="normal" class="text-inner-tspan" font-weight="normal"> Registry</tspan></tspan></text></g></g><g><g><svg xmlns="http://www.w3.org/2000/svg" width="80" height="80" viewBox="0 0 24 24"><path fill="currentColor" d="M11.883.002a12.044 12.044 0 0 0-9.326 19.463l3.668-2.694A7.573 7.573 0 0 1 12.043 4.45v2.867l6.908-5.14A12 12 0 0 0 11.883.002m9.562 4.533L17.777 7.23a7.573 7.573 0 0 1-5.818 12.322v-2.867l-6.908 5.14a12.046 12.046 0 0 0 16.394-17.29"/></svg></g></g></g><g id="service-artifacts" class="architecture-service" transform="translate(505.03796622615437,-70.99928397167535)"><g dy="1em" alignment-baseline="middle" dominant-baseline="middle" text-anchor="middle" transform="translate(40, 80)"><g><rect class="background" style="stroke: none"/><text y="-10.1" style=""><tspan class="text-outer-tspan row" x="0" y="-0.1em" dy="1.1em"><tspan font-style="normal" class="text-inner-tspan" font-weight="normal">Model</tspan><tspan font-style="normal" class="text-inner-tspan" font-weight="normal"> Artifacts</tspan></tspan></text></g></g><g><g><svg xmlns="http://www.w3.org/2000/svg" width="80" height="80" viewBox="0 0 24 24"><path fill="currentColor" d="M13.207.006a2.16 2.16 0 0 0-1.62.582a2.15 2.15 0 0 0-.095 3.035l3.408 3.55a3.042 3.042 0 0 1-.663 4.688l-.463.239V7.285a15.42 15.42 0 0 0-8.018 10.487v.017l6.549-3.328v7.621L13.779 24V13.682l.897-.463a4.443 4.443 0 0 0 1.22-7.03l-3.37-3.525a.75.75 0 0 1 .037-1.055a.75.75 0 0 1 1.056.038l.467.486l-.006.006l4.07 4.244a.057.057 0 0 0 .082 0a.06.06 0 0 0 0-.07l-3.14-5.143l-.149.143l.149-.145C14.494.393 13.829.054 13.207.006m-.902 9.865v2.994l-4.152 2.149a14 14 0 0 1 2.767-3.928a14 14 0 0 1 1.385-1.215"/></svg></g></g></g><g id="service-logs" class="architecture-service" transform="translate(239.3944313397239,106.03529833836048)"><g dy="1em" alignment-baseline="middle" dominant-baseline="middle" text-anchor="middle" transform="translate(40, 80)"><g><rect class="background" style="stroke: none"/><text y="-10.1" style=""><tspan class="text-outer-tspan row" x="0" y="-0.1em" dy="1.1em"><tspan font-style="normal" class="text-inner-tspan" font-weight="normal">Prediction</tspan><tspan font-style="normal" class="text-inner-tspan" font-weight="normal"> Logs</tspan></tspan></text></g></g><g><g><svg xmlns="http://www.w3.org/2000/svg" width="80" height="80" viewBox="0 0 24 24"><path fill="currentColor" d="M13.207.006a2.16 2.16 0 0 0-1.62.582a2.15 2.15 0 0 0-.095 3.035l3.408 3.55a3.042 3.042 0 0 1-.663 4.688l-.463.239V7.285a15.42 15.42 0 0 0-8.018 10.487v.017l6.549-3.328v7.621L13.779 24V13.682l.897-.463a4.443 4.443 0 0 0 1.22-7.03l-3.37-3.525a.75.75 0 0 1 .037-1.055a.75.75 0 0 1 1.056.038l.467.486l-.006.006l4.07 4.244a.057.057 0 0 0 .082 0a.06.06 0 0 0 0-.07l-3.14-5.143l-.149.143l.149-.145C14.494.393 13.829.054 13.207.006m-.902 9.865v2.994l-4.152 2.149a14 14 0 0 1 2.767-3.928a14 14 0 0 1 1.385-1.215"/></svg></g></g></g><g id="service-prom" class="architecture-service" transform="translate(105.64013631658483,130.49928397167537)"><g dy="1em" alignment-baseline="middle" dominant-baseline="middle" text-anchor="middle" transform="translate(40, 80)"><g><rect class="background" style="stroke: none"/><text y="-10.1" style=""><tspan class="text-outer-tspan row" x="0" y="-0.1em" dy="1.1em"><tspan font-style="normal" class="text-inner-tspan" font-weight="normal">Prometheus</tspan><tspan font-style="normal" class="text-inner-tspan" font-weight="normal"> port</tspan></tspan><tspan class="text-outer-tspan row" x="0" y="1em" dy="1.1em"><tspan font-style="normal" class="text-inner-tspan" font-weight="normal">9090</tspan></tspan></text></g></g><g><g><svg xmlns="http://www.w3.org/2000/svg" width="80" height="80" viewBox="0 0 256 257"><path fill="#DA4E31" d="M128.001.667C57.311.667 0 57.971 0 128.664c0 70.69 57.311 127.998 128.001 127.998S256 199.354 256 128.664C256 57.97 198.689.667 128.001.667m0 239.56c-20.112 0-36.419-13.435-36.419-30.004h72.838c0 16.566-16.306 30.004-36.419 30.004m60.153-39.94H67.842V178.47h120.314v21.816zm-.432-33.045H68.185c-.398-.458-.804-.91-1.188-1.375c-12.315-14.954-15.216-22.76-18.032-30.716c-.048-.262 14.933 3.06 25.556 5.45c0 0 5.466 1.265 13.458 2.722c-7.673-8.994-12.23-20.428-12.23-32.116c0-25.658 19.68-48.079 12.58-66.201c6.91.562 14.3 14.583 14.8 36.505c7.346-10.152 10.42-28.69 10.42-40.056c0-11.769 7.755-25.44 15.512-25.907c-6.915 11.396 1.79 21.165 9.53 45.4c2.902 9.103 2.532 24.423 4.772 34.138c.744-20.178 4.213-49.62 17.014-59.784c-5.647 12.8.836 28.818 5.27 36.518c7.154 12.424 11.49 21.836 11.49 39.638c0 11.936-4.407 23.173-11.84 31.958c8.452-1.586 14.289-3.016 14.289-3.016l27.45-5.355c.002-.002-3.987 16.401-19.314 32.197"/></svg></g></g></g></g><g class="architecture-groups"/></svg>